HIERARCHY
ROOT Pelvis
{
	OFFSET 0.000000 0.000000 0.000000
	CHANNELS 6 Xposition Yposition Zposition Zrotation Yrotation Xrotation 
	JOINT LeftUpLeg_virtual
	{
		OFFSET 0.000000 0.000000 0.000000
		CHANNELS 3 Zrotation Yrotation Xrotation
		JOINT LeftUpLeg
		{
			OFFSET 18.735201 -5.666702 -4.541200
			CHANNELS 3 Zrotation Yrotation Xrotation
			JOINT LeftLeg
			{
				OFFSET -0.021200 -31.938179 0.493100
				CHANNELS 3 Zrotation Yrotation Xrotation
				JOINT LeftFoot
				{
					OFFSET 0.021200 -31.938179 -4.336299
					CHANNELS 3 Zrotation Yrotation Xrotation
					JOINT LeftToeBase
					{
						OFFSET 0.943001 -26.722000 15.023500
						CHANNELS 3 Zrotation Yrotation Xrotation
						End Site
						{
							OFFSET 0.000000 0.000000 0.000000
						}
					}
				}
			}
		}
	}
	JOINT RightUpLeg_virtual
	{
		OFFSET 0.000000 0.000000 0.000000
		CHANNELS 3 Zrotation Yrotation Xrotation
		JOINT RightUpLeg
		{
			OFFSET -18.735201 -5.666702 -4.541200
			CHANNELS 3 Zrotation Yrotation Xrotation
			JOINT RightLeg
			{
				OFFSET 0.018946 -31.938133 0.493100
				CHANNELS 3 Zrotation Yrotation Xrotation
				JOINT RightFoot
				{
					OFFSET -0.018946 -31.938126 -4.336299
					CHANNELS 3 Zrotation Yrotation Xrotation
					JOINT RightToeBase
					{
						OFFSET -0.943001 -26.722004 15.023500
						CHANNELS 3 Zrotation Yrotation Xrotation
						End Site
						{
							OFFSET 0.000000 0.000000 0.000000
						}
					}
				}
			}
		}
	}
	JOINT Hips_virtual
	{
		OFFSET 0.000000 0.000000 0.000000
		CHANNELS 3 Zrotation Yrotation Xrotation
		JOINT Hips
		{
			OFFSET -0.000000 -0.000000 -0.000000
			CHANNELS 3 Zrotation Yrotation Xrotation
			JOINT Spine
			{
				OFFSET 0.000000 10.199997 -0.299500
				CHANNELS 3 Zrotation Yrotation Xrotation
				JOINT Spine1
				{
					OFFSET 0.000000 11.900002 -1.516600
					CHANNELS 3 Zrotation Yrotation Xrotation
					JOINT Spine2
					{
						OFFSET 0.000000 13.600006 -2.842500
						CHANNELS 3 Zrotation Yrotation Xrotation
						JOINT Neck_virtual
						{
							OFFSET 0.000000 0.000000 0.000000
							CHANNELS 3 Zrotation Yrotation Xrotation
							JOINT Neck
							{
								OFFSET 0.000000 9.624100 -2.890100
								CHANNELS 3 Zrotation Yrotation Xrotation
								JOINT Head
								{
									OFFSET 0.000000 14.068802 -1.351900
									CHANNELS 3 Zrotation Yrotation Xrotation
									End Site
									{
										OFFSET 0.000000 0.000000 0.000000
									}
								}
							}
						}
						JOINT LeftShoulder_virtual
						{
							OFFSET 0.000000 0.000000 0.000000
							CHANNELS 3 Zrotation Yrotation Xrotation
							JOINT LeftShoulder
							{
								OFFSET 15.263000 10.923401 -0.547700
								CHANNELS 3 Zrotation Yrotation Xrotation
								JOINT LeftArm
								{
									OFFSET 25.438599 -2.830597 -13.032500
									CHANNELS 3 Zrotation Yrotation Xrotation
									JOINT LeftForeArm
									{
										OFFSET 29.960503 0.000000 0.000000
										CHANNELS 3 Zrotation Yrotation Xrotation
										JOINT LeftHand
										{
											OFFSET 27.849251 0.000000 0.000000
											CHANNELS 3 Zrotation Yrotation Xrotation
											End Site
											{
												OFFSET 0.000000 0.000000 0.000000
											}
										}
									}
								}
							}
						}
						JOINT RightShoulder_virtual
						{
							OFFSET 0.000000 0.000000 0.000000
							CHANNELS 3 Zrotation Yrotation Xrotation
							JOINT RightShoulder
							{
								OFFSET -15.263000 10.923401 -0.547700
								CHANNELS 3 Zrotation Yrotation Xrotation
								JOINT RightArm
								{
									OFFSET -25.438599 -2.830597 -13.032500
									CHANNELS 3 Zrotation Yrotation Xrotation
									JOINT RightForeArm
									{
										OFFSET -29.960503 0.000000 0.000000
										CHANNELS 3 Zrotation Yrotation Xrotation
										JOINT RightHand
										{
											OFFSET -27.849251 0.000000 0.000000
											CHANNELS 3 Zrotation Yrotation Xrotation
											End Site
											{
												OFFSET 0.000000 0.000000 0.000000
											}
										}
									}
								}
							}
						}
					}
				}
			}
		}
	}
}
MOTION
Frames: 5
Frame Time: 0.033333
-0.331356 76.419724 6.569251 -0.021011 -0.121866 -0.050679 2.418614 8.725641 6.994490 9.205550 6.716965 13.339350 12.192219 -3.445422 33.985535 0.883471 -3.541913 -18.140026 0.000000 0.000000 0.000000 0.663196 8.177119 7.316326 -1.861198 -2.938737 -66.936478 -5.503125 -2.427331 78.836792 -5.507278 2.191316 -18.364943 0.000000 0.000000 0.000000 -2.206200 7.278436 2.033628 0.195627 -0.383293 0.691855 1.615348 -4.844698 8.672821 2.251544 -3.543094 1.886121 -0.006527 0.025787 0.023706 2.440547 -3.576635 2.366621 -0.929572 0.485613 -0.701788 0.000000 0.000000 0.000000 2.241180 -2.735238 2.021884 -2.614346 4.879422 -1.056973 -61.548599 -17.521952 -17.732004 -168.632324 -63.941631 170.153732 0.000000 0.000000 0.000000 0.823880 -4.229644 -1.586028 9.614329 -8.183924 -2.050510 64.249435 69.556686 17.250824 -0.056039 65.104340 0.161324 0.000000 0.000000 0.000000 
0.134528 79.446175 5.968441 -0.026496 -0.102413 0.137582 1.588035 8.588638 6.644189 8.933649 6.486610 11.754200 11.916080 -3.327478 31.797649 0.191459 -2.935565 -13.532879 0.000000 0.000000 0.000000 0.590683 7.321575 7.333644 -2.033645 -2.866633 -63.515694 -5.061553 -2.843008 71.159058 -4.741110 2.250674 -14.032001 0.000000 0.000000 0.000000 -1.840737 7.360760 1.831236 0.236535 0.221276 0.681948 2.004476 -4.567684 8.404243 1.965317 -3.383393 1.887613 -0.029927 0.014479 0.033184 2.160436 -3.373365 2.287194 -0.846905 0.441553 -0.819246 0.000000 0.000000 0.000000 2.205950 -2.756268 2.195135 -2.342683 2.752213 -1.119470 -58.935425 -24.595819 -18.898500 -167.693512 -66.664146 169.340164 0.000000 0.000000 0.000000 0.753470 -3.932756 -1.143662 8.904332 -6.883574 -2.258983 61.871906 72.446396 14.123905 -0.128699 65.116570 0.091414 0.000000 0.000000 0.000000 
0.611898 83.722130 5.518789 0.099882 -0.078643 0.133048 0.759443 8.990448 5.863030 8.302617 6.523157 7.010054 10.485494 -3.892427 34.012100 -0.524891 -1.813146 1.522313 0.000000 0.000000 0.000000 0.553893 6.660110 7.014363 -1.711998 -3.831432 -56.254658 -4.839988 -3.397822 58.598377 -3.230206 2.356387 -8.587383 0.000000 0.000000 0.000000 -1.292252 8.481855 1.528303 0.197811 0.268996 0.665141 2.838122 -4.249216 8.232730 1.380018 -3.069683 2.061522 0.020780 -0.002983 0.024519 1.474115 -3.069991 2.401060 -0.926310 0.286575 -0.925650 0.000000 0.000000 0.000000 1.760470 -2.518890 2.558531 -1.894313 -0.108060 -0.989834 -54.722927 -34.550159 -20.384861 -166.360672 -70.947685 167.894913 0.000000 0.000000 0.000000 0.442586 -3.420539 -0.203098 7.156995 -5.036769 -2.280777 54.367649 76.537140 4.899720 -0.003852 65.106392 0.231525 0.000000 0.000000 0.000000 
0.851735 87.760277 5.214912 0.004060 0.108713 -0.101265 0.450515 9.886046 5.078983 7.343545 7.285464 -1.052536 8.224287 -4.244963 41.415627 -0.488626 -0.489419 21.646145 0.000000 0.000000 0.000000 0.770351 7.428588 6.303349 -1.288897 -4.645683 -47.612061 -5.245841 -3.893858 45.412811 -1.690140 1.916919 -2.787332 0.000000 0.000000 0.000000 -0.638156 10.356047 1.203156 0.231918 -0.021084 0.645460 3.767664 -3.909868 8.537519 0.707877 -2.670453 2.496298 0.013491 -0.019091 -0.019914 0.821813 -2.624849 2.648279 -0.994010 0.221835 -0.884215 0.000000 0.000000 0.000000 1.244171 -2.255673 3.150162 -1.106496 -3.239636 -0.803646 -49.368767 -44.988480 -22.608501 -164.309311 -75.928505 165.764450 0.000000 0.000000 0.000000 0.203591 -2.918280 0.687820 4.571047 -3.404867 -1.892265 35.836258 80.609779 -15.881187 0.063750 65.132423 0.281131 0.000000 0.000000 0.000000 
0.821562 90.884293 4.750070 -0.116681 0.137668 0.104605 0.210254 11.728517 3.976992 5.907335 8.333776 -12.223735 5.573783 -4.086488 53.184254 0.488020 0.272599 39.640514 0.000000 0.000000 0.000000 1.206820 8.166446 4.833498 -0.768399 -5.048533 -40.790401 -5.915258 -3.869409 34.512608 -0.221736 1.126736 5.636514 0.000000 0.000000 0.000000 -0.354880 11.738240 0.547536 0.200446 0.155953 0.446464 4.268951 -3.407355 9.106351 0.344491 -2.207864 3.082011 0.036684 -0.015977 0.088649 0.398195 -2.191020 2.984111 -1.173196 0.118229 -0.693157 0.000000 0.000000 0.000000 0.705538 -1.841735 3.630816 0.360291 -6.241475 -0.692522 -41.907467 -55.017536 -27.411612 -157.908722 -81.216690 159.301758 0.000000 0.000000 0.000000 -0.003546 -2.414487 1.573809 1.100753 -2.016278 -1.652737 -2.386450 82.535645 -56.850029 0.041700 65.143387 0.274960 0.000000 0.000000 0.000000 
